<svg xmlns="http://www.w3.org/2000/svg" fill="none" viewBox="0 0 398 44">
  <g clip-path="url(#a)">
    <path fill="#FFD24F" d="M30.26 7.27c-.8-3.79-3.1-6.37-4.13-6.89-2.32-1.16-3.1.7-4.13.7-1.03 0-1.8-1.86-4.13-.7-1.03.52-3.33 3.1-4.13 6.89-.8 3.78 8.26.69 8.26.69s9.06 3.1 8.26-.7Z"/>
    <path fill="#FFBE1E" d="M22 18.59c8.74 0 15.83-2.62 15.83-5.85 0-3.24-7.09-5.86-15.83-5.86S6.17 9.5 6.17 12.74c0 3.23 7.09 5.85 15.83 5.85Z"/>
    <path fill="#FFE1B2" d="M12.68 16.97c-1.03-.26-1.7.3-1.7 1.38 0 1.43 1.38 4.95 2.84 2.75s-1.14-4.13-1.14-4.13ZM31.14 16.97c1.13-.26 1.86.3 1.86 1.38 0 1.43-1.51 4.95-3.1 2.75-1.6-2.2 1.24-4.13 1.24-4.13Z"/>
    <path fill="#FFD7A3" d="M14.44 29.49c1.54-1 1.36-3.94 1.36-4.63h12.4c0 .69-.2 3.64 1.34 4.63L22 37.94l-7.56-8.45Z"/>
    <path fill="#FDC88E" d="m26.82 32.43 2.72-2.94c-1.54-1-1.34-3.94-1.34-4.63H15.8c.9 2.56 6.77 6.94 11.02 7.57Z"/>
    <path fill="#FF6953" d="M37.83 44c1.14 0 2.07-.92 2.07-2.07v-4.1a8.06 8.06 0 0 0-5.25-7.18l-4.3-1.38c-2.32 1.77-5.63 4.19-8.35 4.19-2.72 0-6.03-2.42-8.35-4.2l-4.3 1.39a8.06 8.06 0 0 0-5.25 7.18v4.1c0 1.15.93 2.07 2.07 2.07h31.66Z"/>
    <path fill="#E95F43" d="M39.85 42.36h-1.07v-1.45h1.12v-1.05h-1.12V38.4h1.12v-.58l-.02-.47h-1.1V35.9h.81c-.1-.36-.24-.7-.4-1.05h-.4v-.76a8.66 8.66 0 0 0-1.39-1.74h-1.12v-.91a6.57 6.57 0 0 0-1.63-.8l-2.47-.8h-.9v-.28l-.93-.3-.12.09v.5h-.66c-.58.43-1.2.87-1.84 1.3v1.2h-1.45v-.3c-1.22.68-2.46 1.2-3.63 1.35h.07v1.45h-1.44V33.4h.07a10.43 10.43 0 0 1-3.63-1.36v.3h-1.45v-1.19c-.64-.43-1.26-.87-1.84-1.3h-.66v-.5l-.12-.1-.93.3v.3h-.9l-2.47.79c-.57.18-1.12.45-1.63.8v.9H6.6c-.53.52-1 1.11-1.38 1.75v.76h-.4c-.17.34-.3.7-.41 1.05h.8v1.45H4.13l-.02.47v.58h1.12v1.45H4.1v1.05h1.12v1.45H4.15c.08.41.3.77.58 1.05h.49v.35c.28.15.6.24.95.24h.1v-.59h1.45V44h1.05v-.59h1.45V44h1.05v-.59h1.45V44h1.05v-.59h1.45V44h1.05v-.59h1.45V44h1.06v-.59h1.44V44h1.06v-.59h1.44V44h1.06v-.59h1.45V44h1.05v-.59h1.45V44h1.05v-.59h1.45V44h1.05v-.59h1.45V44h1.05v-.59h1.45V44h1.05v-.59h1.45V44h.1c.35 0 .67-.1.96-.24v-.35h.48c.29-.28.5-.64.58-1.05Zm-32.13 0H6.27v-1.45h1.45v1.45Zm0-2.5H6.27v-1.45h1.45v1.45Zm0-2.5H6.27V35.9h1.45v1.45Zm0-2.5H6.27V33.4h1.45v1.45Zm2.5 7.5H8.77v-1.45h1.45v1.45Zm0-2.5H8.77v-1.45h1.45v1.45Zm0-2.5H8.77V35.9h1.45v1.45Zm0-2.5H8.77V33.4h1.45v1.45Zm0-2.5H8.77V30.9h1.45v1.45Zm2.5 10h-1.45v-1.45h1.45v1.45Zm0-2.5h-1.45v-1.45h1.45v1.45Zm0-2.5h-1.45V35.9h1.45v1.45Zm0-2.5h-1.45V33.4h1.45v1.45Zm0-2.5h-1.45V30.9h1.45v1.45Zm2.5 10h-1.45v-1.45h1.45v1.45Zm0-2.5h-1.45v-1.45h1.45v1.45Zm0-2.5h-1.45V35.9h1.45v1.45Zm0-2.5h-1.45V33.4h1.45v1.45Zm0-2.5h-1.45V30.9h1.45v1.45Zm2.5 10h-1.45v-1.45h1.45v1.45Zm0-2.5h-1.45v-1.45h1.45v1.45Zm0-2.5h-1.45V35.9h1.45v1.45Zm0-2.5h-1.45V33.4h1.45v1.45Zm2.5 7.5h-1.44v-1.45h1.44v1.45Zm0-2.5h-1.44v-1.45h1.44v1.45Zm0-2.5h-1.44V35.9h1.44v1.45Zm0-2.5h-1.44V33.4h1.44v1.45Zm2.5 7.5h-1.44v-1.45h1.44v1.45Zm0-2.5h-1.44v-1.45h1.44v1.45Zm0-2.5h-1.44V35.9h1.44v1.45Zm2.5 5h-1.44v-1.45h1.44v1.45Zm0-2.5h-1.44v-1.45h1.44v1.45Zm0-2.5h-1.44V35.9h1.44v1.45Zm0-2.5h-1.44V33.4h1.44v1.45Zm2.5 7.5h-1.44v-1.45h1.45v1.45Zm0-2.5h-1.44v-1.45h1.45v1.45Zm0-2.5h-1.44V35.9h1.45v1.45Zm0-2.5h-1.44V33.4h1.45v1.45Zm2.5 7.5h-1.44v-1.45h1.45v1.45Zm0-2.5h-1.44v-1.45h1.45v1.45Zm0-2.5h-1.44V35.9h1.45v1.45Zm0-2.5h-1.44V33.4h1.45v1.45Zm0-2.5h-1.44V30.9h1.45v1.45Zm2.5 10h-1.44v-1.45h1.45v1.45Zm0-2.5h-1.44v-1.45h1.45v1.45Zm0-2.5h-1.44V35.9h1.45v1.45Zm0-2.5h-1.44V33.4h1.45v1.45Zm0-2.5h-1.44V30.9h1.45v1.45Zm2.51 10h-1.45v-1.45h1.45v1.45Zm0-2.5h-1.45v-1.45h1.45v1.45Zm0-2.5h-1.45V35.9h1.45v1.45Zm0-2.5h-1.45V33.4h1.45v1.45Zm0-2.5h-1.45V30.9h1.45v1.45Zm2.5 10h-1.45v-1.45h1.45v1.45Zm0-2.5h-1.45v-1.45h1.45v1.45Zm0-2.5h-1.45V35.9h1.45v1.45Zm0-2.5h-1.45V33.4h1.45v1.45Z"/>
    <path fill="#FFBE1E" d="m22 33.46-2.87 2.87c-.3.3-.8.26-1.05-.08l-5.03-6.92 1.6-1.6a.69.69 0 0 1 .95-.03l6.4 5.76ZM22 33.46l2.87 2.87c.3.3.8.26 1.05-.08l5.03-6.92-1.6-1.6a.69.69 0 0 0-.95-.03L22 33.46Z"/>
    <path fill="#FFE1B2" d="M12.8 12.32c-.17.97-.18 2.14-.18 3.53 0 5.52 3.1 12.4 9.38 12.4 6.29 0 9.38-6.88 9.38-12.4 0-1.39-.01-2.56-.17-3.53A29.48 29.48 0 0 0 22 10.96c-3.48 0-6.69.5-9.2 1.36Z"/>
    <path fill="#A7795E" d="M31.41 13.43 30.27 12v.69c.17 6.23-2.05 8.94-2.05 8.94l-2.83.32c-2.2.25-4.43.25-6.63 0l-2.83-.32s-2.22-2.7-2.05-8.94v-.7s-.6.73-1.14 1.44c-.15.61-.38 1.28-.38 2.01 0 5.52 3.3 13.47 9.71 13.47 6.42 0 9.57-7.95 9.57-13.47 0-.73-.08-1.4-.23-2Zm-11.38 9.84h4.1c.56 0 1.04.34 1.25.83a8.5 8.5 0 0 1-3.23.55c-1.38 0-2.6-.24-3.35-.6.23-.46.69-.78 1.23-.78Z"/>
    <path fill="#543D38" d="M22.37 22.66c0-.91-.89-1.12-1.47-.9-1.06.4-2.23 1.53-3.22.84 0 0 .34 1.45.92 1.45 1.16 0 3.77.15 3.77-1.4Z"/>
    <path fill="#543D38" d="M22.09 22.66c0-.91.88-1.12 1.46-.9 1.06.4 2.24 1.53 3.23.84 0 0-.35 1.45-.93 1.45-1.16 0-3.76.15-3.76-1.4Z"/>
    <path fill="#C55F54" d="m33.7 30.25-2.75-.88v8.47c0 .32-.21.6-.52.67-2.33.58-5.25.92-8.43.92-3.18 0-6.1-.34-8.43-.92a.68.68 0 0 1-.52-.67v-8.47l-2.75.88V44h23.4V30.25Z"/>
    <path fill="#543D38" d="m12.4 17.06 1.87.34s.72-4.07 1.11-5.76c-1.01.2-1.97.45-2.84.73a22.35 22.35 0 0 0-.13 4.7ZM31.6 17.06l-1.87.34s-.72-4.07-1.11-5.76c1.01.2 1.97.45 2.84.73a22.35 22.35 0 0 1 .13 4.7ZM26.04 13.32l1.66-1.88a32.86 32.86 0 0 0-9.27-.3c1.08-.07 5.33.5 7.61 2.18Z"/>
  </g>
  <path fill="#333" d="M77.82 13.82h4.56c1.63 0 3.07.35 4.33 1.04a7.48 7.48 0 0 1 2.98 2.91 8.6 8.6 0 0 1 1.08 4.4c0 1.63-.36 3.05-1.08 4.26a7.46 7.46 0 0 1-2.98 2.84 9.1 9.1 0 0 1-4.33 1h-4.56a9.25 9.25 0 0 1-4.35-1 7.46 7.46 0 0 1-2.98-2.82 8.3 8.3 0 0 1-1.08-4.3 8.6 8.6 0 0 1 1.09-4.39 7.55 7.55 0 0 1 2.99-2.9 8.92 8.92 0 0 1 4.33-1.04Zm0 3.6c-.87 0-1.64.18-2.31.53-.67.35-1.18.87-1.55 1.57a5.6 5.6 0 0 0-.56 2.64c0 1 .19 1.84.57 2.51.38.67.9 1.17 1.57 1.5.66.33 1.42.5 2.28.5h4.59c.87 0 1.63-.17 2.27-.5a3.53 3.53 0 0 0 1.53-1.52c.36-.67.54-1.5.54-2.48 0-1.06-.18-1.94-.54-2.64a3.58 3.58 0 0 0-1.53-1.58 4.72 4.72 0 0 0-2.27-.53h-4.59Zm4.32-6.14v21.56h-4.09V11.28h4.09Zm18.68 21.02a8.16 8.16 0 0 1-4.05-.96 6.54 6.54 0 0 1-2.6-2.72 9 9 0 0 1-.92-4.19c0-1.57.3-2.95.91-4.13a6.76 6.76 0 0 1 2.58-2.78c1.1-.66 2.42-1 3.91-1 1.01 0 1.95.17 2.82.5a6.24 6.24 0 0 1 3.82 3.86c.36.97.54 2.1.54 3.4v1.17h-12.9v-2.63h8.91c0-.6-.13-1.15-.4-1.62a2.85 2.85 0 0 0-1.1-1.1c-.46-.27-1-.41-1.62-.41-.64 0-1.21.15-1.7.45-.5.29-.88.68-1.16 1.18-.28.5-.42 1.04-.43 1.64v2.5c0 .75.14 1.4.42 1.96.28.55.69.97 1.2 1.27.52.3 1.13.45 1.84.45a4 4 0 0 0 1.3-.2 2.6 2.6 0 0 0 1.64-1.57l3.91.25c-.2.95-.6 1.77-1.22 2.47-.61.7-1.4 1.24-2.37 1.63-.96.39-2.07.58-3.33.58Zm9.78 5.43v-21h4.17v2.56h.2c.18-.4.45-.83.8-1.25.36-.43.82-.79 1.39-1.07a5.74 5.74 0 0 1 7.49 3.05c.56 1.16.84 2.61.84 4.36 0 1.7-.27 3.15-.82 4.32a5.72 5.72 0 0 1-5.37 3.55 4.9 4.9 0 0 1-2.1-.4 4.34 4.34 0 0 1-1.4-1.03 5.18 5.18 0 0 1-.84-1.27h-.13v8.18h-4.23Zm4.14-13.37c0 .91.13 1.7.38 2.38.25.68.62 1.2 1.1 1.58.47.37 1.05.56 1.73.56.7 0 1.28-.2 1.75-.57.48-.38.84-.91 1.09-1.59.25-.68.38-1.47.38-2.36 0-.88-.13-1.65-.37-2.32-.25-.67-.6-1.2-1.09-1.57a2.74 2.74 0 0 0-1.75-.57 2.8 2.8 0 0 0-1.75.55c-.48.36-.84.88-1.09 1.55a6.71 6.71 0 0 0-.38 2.36Zm22.6 2.96 4.14-10.6h3.22L138.75 32h-2.82l-5.81-15.27h3.2l4.02 10.59Zm-4.98-10.6V32h-4.05V16.73h4.05ZM142.53 32V16.73h4V32h-4Zm14.24.3a8.16 8.16 0 0 1-4.06-.96 6.54 6.54 0 0 1-2.6-2.72 9 9 0 0 1-.92-4.19c0-1.57.3-2.95.92-4.13a6.76 6.76 0 0 1 2.57-2.78c1.11-.66 2.42-1 3.92-1 1 0 1.94.17 2.81.5a6.25 6.25 0 0 1 3.82 3.86c.37.97.55 2.1.55 3.4v1.17h-12.9v-2.63h8.91c0-.6-.13-1.15-.4-1.62a2.85 2.85 0 0 0-1.1-1.1c-.47-.27-1-.41-1.62-.41-.64 0-1.21.15-1.71.45-.5.29-.88.68-1.16 1.18-.27.5-.42 1.04-.42 1.64v2.5c0 .75.14 1.4.41 1.96.29.55.7.97 1.2 1.27.52.3 1.14.45 1.85.45a4 4 0 0 0 1.29-.2 2.59 2.59 0 0 0 1.64-1.57l3.92.25c-.2.95-.6 1.77-1.22 2.47-.62.7-1.4 1.24-2.37 1.63-.96.39-2.07.58-3.33.58Zm9.77 5.43v-21h4.18v2.56h.19c.18-.4.45-.83.8-1.25.36-.43.82-.79 1.4-1.07a5.74 5.74 0 0 1 7.49 3.05c.56 1.16.84 2.61.84 4.36 0 1.7-.28 3.15-.83 4.32a5.71 5.71 0 0 1-5.37 3.55 4.9 4.9 0 0 1-2.1-.4 4.35 4.35 0 0 1-1.4-1.03 5.21 5.21 0 0 1-.83-1.27h-.13v8.18h-4.24Zm4.15-13.37c0 .91.12 1.7.38 2.38.25.68.61 1.2 1.09 1.58.48.37 1.06.56 1.74.56.69 0 1.27-.2 1.75-.57.48-.38.84-.91 1.08-1.59.26-.68.38-1.47.38-2.36 0-.88-.12-1.65-.37-2.32-.24-.67-.6-1.2-1.08-1.57a2.75 2.75 0 0 0-1.76-.57 2.8 2.8 0 0 0-1.75.55c-.47.36-.83.88-1.08 1.55a6.71 6.71 0 0 0-.38 2.36Zm20.47 7.94a7.82 7.82 0 0 1-4.04-1 6.72 6.72 0 0 1-2.58-2.78 9 9 0 0 1-.9-4.1c0-1.56.3-2.93.9-4.11a6.72 6.72 0 0 1 2.6-2.78c1.12-.67 2.46-1 4-1 1.33 0 2.5.24 3.5.72 1 .49 1.8 1.17 2.38 2.04.58.88.9 1.9.96 3.09h-4a3.09 3.09 0 0 0-.89-1.84c-.48-.48-1.1-.71-1.88-.71-.66 0-1.23.18-1.72.54-.48.35-.86.86-1.13 1.54-.28.67-.41 1.5-.41 2.45 0 .98.13 1.8.4 2.49.27.68.65 1.2 1.14 1.56.5.36 1.06.54 1.72.54.48 0 .92-.1 1.3-.3.4-.2.72-.49.97-.87.26-.38.43-.84.5-1.38h4a6.26 6.26 0 0 1-.95 3.08 5.77 5.77 0 0 1-2.34 2.07c-1 .5-2.17.75-3.53.75Zm9.53-.3V16.73h4.24v5.92h1.2l4.15-5.92h4.97l-5.4 7.57 5.46 7.7h-5.03l-3.77-5.42h-1.58V32h-4.24Zm20.46-5.59 5.5-9.68h4.17V32h-4.03v-9.71L221.3 32h-4.21V16.73h4.05v9.68Zm20.03 5.89a8.16 8.16 0 0 1-4.06-.96 6.54 6.54 0 0 1-2.6-2.72 9 9 0 0 1-.92-4.19c0-1.57.3-2.95.92-4.13a6.76 6.76 0 0 1 2.57-2.78c1.12-.66 2.42-1 3.92-1 1 0 1.94.17 2.81.5a6.25 6.25 0 0 1 3.82 3.86c.37.97.55 2.1.55 3.4v1.17h-12.9v-2.63h8.91c0-.6-.13-1.15-.4-1.62a2.85 2.85 0 0 0-1.1-1.1c-.46-.27-1-.41-1.62-.41-.65 0-1.22.15-1.71.45-.5.29-.88.68-1.16 1.18-.27.5-.42 1.04-.42 1.64v2.5c0 .75.14 1.4.42 1.96.28.55.68.97 1.2 1.27.52.3 1.13.45 1.84.45a4 4 0 0 0 1.29-.2 2.59 2.59 0 0 0 1.64-1.57l3.92.25c-.2.95-.6 1.77-1.22 2.47-.61.7-1.4 1.24-2.37 1.63-.96.39-2.07.58-3.33.58Zm16.25-.3V16.73h13.36V32h-4.05V20.06h-5.31V32h-4Zm16.74 5.73v-21h4.17v2.56h.2c.18-.4.45-.83.8-1.25.36-.43.82-.79 1.39-1.07a5.74 5.74 0 0 1 7.49 3.05c.56 1.16.84 2.61.84 4.36 0 1.7-.27 3.15-.82 4.32a5.71 5.71 0 0 1-5.37 3.55 4.9 4.9 0 0 1-2.1-.4 4.35 4.35 0 0 1-1.4-1.03 5.21 5.21 0 0 1-.84-1.27h-.13v8.18h-4.23Zm4.14-13.37c0 .91.13 1.7.38 2.38.25.68.62 1.2 1.1 1.58.47.37 1.05.56 1.73.56.7 0 1.28-.2 1.75-.57.48-.38.84-.91 1.09-1.59.25-.68.38-1.47.38-2.36 0-.88-.13-1.65-.37-2.32-.25-.67-.6-1.2-1.08-1.57a2.75 2.75 0 0 0-1.77-.57 2.8 2.8 0 0 0-1.75.55c-.47.36-.83.88-1.08 1.55a6.71 6.71 0 0 0-.38 2.36Zm20.48 7.94a7.82 7.82 0 0 1-4.01-.99 6.74 6.74 0 0 1-2.6-2.76 8.9 8.9 0 0 1-.91-4.13c0-1.57.3-2.95.91-4.13a6.66 6.66 0 0 1 2.6-2.77c1.13-.66 2.46-1 4-1a7.7 7.7 0 0 1 4 1c1.13.66 2 1.58 2.6 2.77.62 1.18.92 2.56.92 4.13a8.9 8.9 0 0 1-.91 4.13 6.71 6.71 0 0 1-2.6 2.76 7.77 7.77 0 0 1-4 .99Zm.02-3.28c.7 0 1.29-.2 1.76-.6.47-.4.82-.95 1.06-1.65.25-.7.37-1.49.37-2.38 0-.88-.13-1.68-.37-2.37a3.7 3.7 0 0 0-1.06-1.65 2.6 2.6 0 0 0-1.76-.61c-.71 0-1.31.2-1.8.6-.47.41-.83.96-1.08 1.66a7.3 7.3 0 0 0-.36 2.37c0 .9.12 1.68.36 2.38.25.7.6 1.25 1.09 1.65.48.4 1.08.6 1.79.6Zm9.05 7.45v-7.83h1.18c.34-.21.6-.55.81-1.02.21-.46.39-1 .52-1.64.14-.63.25-1.3.32-2.03.08-.74.15-1.48.2-2.23l.4-5h11.72v11.92h2.36v7.83h-4.03V32H312v4.47h-4.14Zm5.4-7.83H319v-8.65h-4.12l-.15 1.73a37.32 37.32 0 0 1-.5 4.16 7.84 7.84 0 0 1-.99 2.76Zm17.2 9.09a8.4 8.4 0 0 1-2.67-.44l.96-3.16c.5.15.94.23 1.34.25.4.01.75-.08 1.04-.28.3-.2.54-.54.73-1.02l.25-.64-5.48-15.71h4.45l3.17 11.21h.15l3.2-11.21h4.48l-5.94 16.92a7.12 7.12 0 0 1-1.16 2.15 4.77 4.77 0 0 1-1.84 1.42c-.74.34-1.63.5-2.68.5ZM344.25 32V16.73h4.24v5.92h1.19l4.15-5.92h4.98l-5.4 7.57 5.45 7.7h-5.03l-3.76-5.42h-1.58V32h-4.24Zm15.61-11.94v-3.33h13.84v3.33h-4.92V32h-4.04V20.06h-4.88Zm19.06 1.36h4.57c2.02 0 3.6.48 4.73 1.45a4.8 4.8 0 0 1 1.7 3.86 5 5 0 0 1-.77 2.76 5.1 5.1 0 0 1-2.2 1.85 8.3 8.3 0 0 1-3.46.66h-7.22V16.73h4.05v11.94h3.17c.7 0 1.29-.18 1.75-.54.45-.36.69-.81.7-1.37a1.8 1.8 0 0 0-.7-1.44 2.66 2.66 0 0 0-1.75-.57h-4.57v-3.33ZM391.56 32V16.73h4.24V32h-4.24Z"/>
  <defs>
    <clipPath id="a">
      <path fill="#fff" d="M0 0h44v44H0z"/>
    </clipPath>
  </defs>
</svg>
